<?xml version="1.0" encoding="UTF-8"?>
<svg width="240px" height="240px" viewBox="0 0 240 240" version="1.1" xmlns="http://www.w3.org/2000/svg" xmlns:xlink="http://www.w3.org/1999/xlink">
    <!-- Generator: Sketch 52.4 (67378) - http://www.bohemiancoding.com/sketch -->
    <title>ic_Giftvoucher_Designs_240</title>
    <desc>Created with Sketch.</desc>
    <g id="Page-1" stroke="none" stroke-width="1" fill="none" fill-rule="evenodd">
        <g id="Icons_240x240" fill-rule="nonzero">
            <g id="ic_Giftvoucher_Designs_240">
                <circle id="Oval-Copy-3" fill="#FFFF" cx="120" cy="120" r="120"></circle>
                <path d="M70.420557,149.482122 L75.1475404,149.11972 L75.1475404,156.964854 L74.2133473,157.026464 L66.9320232,157.504493 C64.9686722,157.504493 63.2942085,155.988439 63.1413691,153.9572 L58.367368,85.8389762 C58.367368,84.7884265 58.6711181,83.8569263 59.2781389,83.0812886 C59.9290258,82.2495998 60.9145788,81.7458727 61.8545911,81.7485497 L146.302713,75.5596658 C147.343273,75.5596658 148.265986,75.8740719 149.030591,76.4993484 C149.841344,77.1623642 150.328575,78.158481 150.326143,79.1072014 L151.215544,91.8355279 L143.624461,91.8355279 L143.047445,83.5777999 L66.252635,89.1436276 L70.420557,149.482122 Z" id="Shape" fill="#F90000" transform="translate(104.791456, 116.532080) rotate(-2.000000) translate(-104.791456, -116.532080) "></path>
                <path d="M170.331761,99.1304348 L85.7947214,99.1304348 C84.283055,99.1304348 83.0039526,100.441084 83.0039526,101.990033 L83.0039526,170.262932 C83.0039526,171.811881 84.283055,173.12253 85.7947214,173.12253 L170.331761,173.12253 C171.843427,173.12253 173.12253,171.811881 173.12253,170.262932 L173.12253,101.990033 C173.12253,100.441084 171.843427,99.1304348 170.331761,99.1304348 Z M91.2728973,164.44031 L111.521211,140.573882 L132.617621,165.439951 L91.2728973,165.439951 L91.2728973,164.44031 Z M142.873853,165.439951 L128.483148,149.539199 L144.210133,132.285193 L165.6934,155.74162 L165.6934,165.327179 L142.873853,165.327179 L142.873853,165.439951 Z" id="Shape" fill="#F90000"></path>
                <path d="M167.667984,105.059289 L167.667984,149.366883 L145.337074,126.498447 C144.290313,125.426489 142.429404,125.426489 141.382642,126.498447 L121.610483,146.746542 L112.887471,137.813559 C111.84071,136.741601 109.979801,136.741601 108.933039,137.813559 L88.6956522,158.418972 L88.6956522,105.059289 L167.667984,105.059289 Z" id="Path" fill="#F90000"></path>
                <ellipse id="Oval" fill="#F90000" cx="111.12253" cy="126.810277" rx="6.40316206" ry="6.52173913"></ellipse>
            </g>
        </g>
    </g>
</svg>