<svg id="Layer_1" data-name="Layer 1" xmlns="http://www.w3.org/2000/svg" viewBox="0 0 64.03 63.01"><defs><style>.cls-1{fill:none;stroke:#e30b17;stroke-linejoin:round;stroke-width:2.03px;}</style></defs><title>ism-services-design-icon</title><path className="cls-1" d="M40,53c0-6.14,3.73-10.42,6.1-12.52a3,3,0,0,0,.62-3.73L32.88,12.53a1,1,0,0,0-1.73,0L17.3,36.76a3,3,0,0,0,.62,3.73A18.63,18.63,0,0,1,23.15,48"/><circle className="cls-1" cx="32.01" cy="36.01" r="3"/><path className="cls-1" d="M4,33c0-.33,0-.66,0-1A28.16,28.16,0,0,1,29,4"/><path className="cls-1" d="M35,4A28.13,28.13,0,0,1,50.54,53"/><line className="cls-1" x1="35.01" y1="4.01" x2="57.01" y2="4.01"/><line className="cls-1" x1="7.01" y1="4.01" x2="29.01" y2="4.01"/><circle className="cls-1" cx="60.01" cy="4.01" r="3"/><circle className="cls-1" cx="4.01" cy="4.01" r="3"/><rect className="cls-1" x="1.01" y="33.01" width="6" height="6"/><rect className="cls-1" x="29.01" y="1.01" width="6" height="6"/><line className="cls-1" x1="40.01" y1="63.01" x2="40.01" y2="60.01"/><line className="cls-1" x1="24.01" y1="63.01" x2="24.01" y2="60.01"/><path className="cls-1" d="M33,60h7a2,2,0,0,0,2-2V55a2,2,0,0,0-2-2H24a2,2,0,0,0-2,2v3a2,2,0,0,0,2,2h2"/><line className="cls-1" x1="32.01" y1="12.01" x2="32.01" y2="33.01"/></svg>